REM DIRINDEX 1\4,1\2\5,1\2\6,1\2\7,1\3\8,1\3\9,1\3\10,1\3\11
REM DIRNAME folder01,folder02,folder03,folder04,folder05,folder06,folder07,folder08,folder09,folder10,folder11
TITLE ""
FILE "t_k_356-367.mp3" MP3
  TRACK 01 AUDIO
    TITLE "5:cjc108_1070"
    INDEX 01 00:00:00
  TRACK 02 AUDIO
    TITLE "0:"
    INDEX 01 00:01:17
  TRACK 03 AUDIO
    TITLE "6:cjc108_1071"
    INDEX 01 00:01:36
  TRACK 04 AUDIO
    TITLE "0:"
    INDEX 01 00:02:49
  TRACK 05 AUDIO
    TITLE "7:cjc108_1072"
    INDEX 01 00:02:63
  TRACK 06 AUDIO
    TITLE "0:"
    INDEX 01 00:10:16
  TRACK 07 AUDIO
    TITLE "5:cjc108_1073"
    INDEX 01 00:10:74
  TRACK 08 AUDIO
    TITLE "0:"
    INDEX 01 00:12:07
  TRACK 09 AUDIO
    TITLE "6:cjc108_1074"
    INDEX 01 00:12:28
  TRACK 10 AUDIO
    TITLE "0:"
    INDEX 01 00:13:16
  TRACK 11 AUDIO
    TITLE "7:cjc108_1075"
    INDEX 01 00:13:39
  TRACK 12 AUDIO
    TITLE "0:"
    INDEX 01 00:19:22
  TRACK 13 AUDIO
    TITLE "5:cjc108_1076"
    INDEX 01 00:20:08
  TRACK 14 AUDIO
    TITLE "0:"
    INDEX 01 00:21:19
  TRACK 15 AUDIO
    TITLE "6:cjc108_1077"
    INDEX 01 00:21:37
  TRACK 16 AUDIO
    TITLE "0:"
    INDEX 01 00:23:46
  TRACK 17 AUDIO
    TITLE "7:cjc108_1078"
    INDEX 01 00:23:61
  TRACK 18 AUDIO
    TITLE "0:"
    INDEX 01 00:30:06
  TRACK 19 AUDIO
    TITLE "5:cjc108_1079"
    INDEX 01 00:30:59
  TRACK 20 AUDIO
    TITLE "0:"
    INDEX 01 00:32:03
  TRACK 21 AUDIO
    TITLE "6:cjc108_1080"
    INDEX 01 00:32:15
  TRACK 22 AUDIO
    TITLE "0:"
    INDEX 01 00:33:21
  TRACK 23 AUDIO
    TITLE "7:cjc108_1081"
    INDEX 01 00:33:38
  TRACK 24 AUDIO
    TITLE "0:"
    INDEX 01 00:38:22
  TRACK 25 AUDIO
    TITLE "5:cjc108_1082"
    INDEX 01 00:39:11
  TRACK 26 AUDIO
    TITLE "0:"
    INDEX 01 00:40:28
  TRACK 27 AUDIO
    TITLE "6:cjc108_1083"
    INDEX 01 00:40:34
  TRACK 28 AUDIO
    TITLE "0:"
    INDEX 01 00:42:65
  TRACK 29 AUDIO
    TITLE "7:cjc108_1084"
    INDEX 01 00:43:03
  TRACK 30 AUDIO
    TITLE "0:"
    INDEX 01 00:50:64
  TRACK 31 AUDIO
    TITLE "5:cjc108_1085"
    INDEX 01 00:51:44
  TRACK 32 AUDIO
    TITLE "0:"
    INDEX 01 00:52:49
  TRACK 33 AUDIO
    TITLE "6:cjc108_1086"
    INDEX 01 00:52:55
  TRACK 34 AUDIO
    TITLE "0:"
    INDEX 01 00:54:70
  TRACK 35 AUDIO
    TITLE "7:cjc108_1087"
    INDEX 01 00:55:12
  TRACK 36 AUDIO
    TITLE "0:"
    INDEX 01 00:59:28
  TRACK 37 AUDIO
    TITLE "5:cjc108_1088"
    INDEX 01 01:00:08
  TRACK 38 AUDIO
    TITLE "0:"
    INDEX 01 01:01:33
  TRACK 39 AUDIO
    TITLE "6:cjc108_1089"
    INDEX 01 01:01:36
  TRACK 40 AUDIO
    TITLE "0:"
    INDEX 01 01:03:08
  TRACK 41 AUDIO
    TITLE "7:cjc108_1090"
    INDEX 01 01:03:27
  TRACK 42 AUDIO
    TITLE "0:"
    INDEX 01 01:09:10
  TRACK 43 AUDIO
    TITLE "5:cjc108_1091"
    INDEX 01 01:09:73
  TRACK 44 AUDIO
    TITLE "0:"
    INDEX 01 01:11:19
  TRACK 45 AUDIO
    TITLE "6:cjc108_1092"
    INDEX 01 01:11:23
  TRACK 46 AUDIO
    TITLE "0:"
    INDEX 01 01:13:53
  TRACK 47 AUDIO
    TITLE "7:cjc108_1093"
    INDEX 01 01:13:65
  TRACK 48 AUDIO
    TITLE "0:"
    INDEX 01 01:18:56
  TRACK 49 AUDIO
    TITLE "5:cjc108_1094"
    INDEX 01 01:19:34
  TRACK 50 AUDIO
    TITLE "0:"
    INDEX 01 01:20:55
  TRACK 51 AUDIO
    TITLE "6:cjc108_1095"
    INDEX 01 01:20:61
  TRACK 52 AUDIO
    TITLE "0:"
    INDEX 01 01:22:74
  TRACK 53 AUDIO
    TITLE "7:cjc108_1096"
    INDEX 01 01:23:15
  TRACK 54 AUDIO
    TITLE "0:"
    INDEX 01 01:26:44
  TRACK 55 AUDIO
    TITLE "5:cjc108_1097"
    INDEX 01 01:27:34
  TRACK 56 AUDIO
    TITLE "0:"
    INDEX 01 01:28:59
  TRACK 57 AUDIO
    TITLE "6:cjc108_1098"
    INDEX 01 01:28:69
  TRACK 58 AUDIO
    TITLE "0:"
    INDEX 01 01:31:26
  TRACK 59 AUDIO
    TITLE "7:cjc108_1099"
    INDEX 01 01:31:43
  TRACK 60 AUDIO
    TITLE "0:"
    INDEX 01 01:35:67
  TRACK 61 AUDIO
    TITLE "5:cjc108_1100"
    INDEX 01 01:36:56
  TRACK 62 AUDIO
    TITLE "0:"
    INDEX 01 01:38:16
  TRACK 63 AUDIO
    TITLE "6:cjc108_1101"
    INDEX 01 01:38:34
  TRACK 64 AUDIO
    TITLE "0:"
    INDEX 01 01:41:26
  TRACK 65 AUDIO
    TITLE "7:cjc108_1102"
    INDEX 01 01:41:44
  TRACK 66 AUDIO
    TITLE "0:"
    INDEX 01 01:47:70
  TRACK 67 AUDIO
    TITLE "5:cjc108_1103"
    INDEX 01 01:48:63
  TRACK 68 AUDIO
    TITLE "0:"
    INDEX 01 01:50:07
  TRACK 69 AUDIO
    TITLE "6:cjc108_1104"
    INDEX 01 01:50:23
  TRACK 70 AUDIO
    TITLE "0:"
    INDEX 01 01:52:40
  TRACK 71 AUDIO
    TITLE "7:cjc108_1105"
    INDEX 01 01:52:59
  TRACK 72 AUDIO
    TITLE "0:"
    INDEX 01 01:58:62
